<?xml version="1.0" encoding="iso-8859-1"?>
<!-- Generator: Adobe Illustrator 19.0.0, SVG Export Plug-In . SVG Version: 6.00 Build 0)  -->
<svg version="1.1" id="Capa_1" xmlns="http://www.w3.org/2000/svg" xmlns:xlink="http://www.w3.org/1999/xlink" x="0px" y="0px"
	 viewBox="0 0 512.008 512.008" style="enable-background:new 0 0 512.008 512.008;" xml:space="preserve">
<path style="fill:#2196F3;" d="M501.342,245.185H36.424L210.227,71.404c4.093-4.237,3.975-10.99-0.262-15.083
	c-4.134-3.992-10.687-3.992-14.82,0l-192,192c-4.171,4.16-4.179,10.914-0.019,15.085c0.006,0.006,0.013,0.013,0.019,0.019l192,192
	c4.093,4.237,10.845,4.354,15.083,0.262c4.237-4.093,4.354-10.845,0.262-15.083c-0.086-0.089-0.173-0.176-0.262-0.262
	L36.424,266.519h464.917c5.891,0,10.667-4.776,10.667-10.667S507.233,245.185,501.342,245.185z"/>
<path d="M202.675,458.519c-2.831,0.005-5.548-1.115-7.552-3.115l-192-192c-4.164-4.165-4.164-10.917,0-15.083l192-192
	c4.237-4.093,10.99-3.975,15.083,0.262c3.992,4.134,3.992,10.687,0,14.82L25.758,255.852L210.206,440.3
	c4.171,4.16,4.179,10.914,0.019,15.085C208.224,457.39,205.508,458.518,202.675,458.519z"/>
<path d="M501.342,266.519H10.675c-5.891,0-10.667-4.776-10.667-10.667s4.776-10.667,10.667-10.667h490.667
	c5.891,0,10.667,4.776,10.667,10.667S507.233,266.519,501.342,266.519z"/>
<g>
</g>
<g>
</g>
<g>
</g>
<g>
</g>
<g>
</g>
<g>
</g>
<g>
</g>
<g>
</g>
<g>
</g>
<g>
</g>
<g>
</g>
<g>
</g>
<g>
</g>
<g>
</g>
<g>
</g>
</svg>
